<?xml version="1.0" encoding="UTF-8" standalone="no"?><svg xmlns="http://www.w3.org/2000/svg" xmlns:xlink="http://www.w3.org/1999/xlink" contentStyleType="text/css" height="191px" preserveAspectRatio="none" style="width:340px;height:191px;background:#FFFFFF;" version="1.1" viewBox="0 0 340 191" width="340px" zoomAndPan="magnify"><defs/><g><ellipse cx="170" cy="20" fill="#222222" rx="10" ry="10" style="stroke:#222222;stroke-width:1.0;"/><rect fill="#F1F1F1" height="34.1328" rx="12.5" ry="12.5" style="stroke:#181818;stroke-width:0.5;" width="192" x="74" y="50"/><text fill="#000000" font-family="sans-serif" font-size="12" lengthAdjust="spacing" textLength="172" x="84" y="71.6016">Получаем событие из кафки</text><rect fill="#F1F1F1" height="34.1328" rx="12.5" ry="12.5" style="stroke:#181818;stroke-width:0.5;" width="318" x="11" y="104.1328"/><text fill="#000000" font-family="sans-serif" font-size="12" lengthAdjust="spacing" textLength="298" x="21" y="125.7344">Сохраняем в таблицу employee_hire_changes_raw</text><ellipse cx="170" cy="169.2656" fill="none" rx="11" ry="11" style="stroke:#222222;stroke-width:1.0;"/><ellipse cx="170" cy="169.2656" fill="#222222" rx="6" ry="6" style="stroke:#111111;stroke-width:1.0;"/><line style="stroke:#181818;stroke-width:1.0;" x1="170" x2="170" y1="30" y2="50"/><polygon fill="#181818" points="166,40,170,50,174,40,170,44" style="stroke:#181818;stroke-width:1.0;"/><line style="stroke:#181818;stroke-width:1.0;" x1="170" x2="170" y1="84.1328" y2="104.1328"/><polygon fill="#181818" points="166,94.1328,170,104.1328,174,94.1328,170,98.1328" style="stroke:#181818;stroke-width:1.0;"/><line style="stroke:#181818;stroke-width:1.0;" x1="170" x2="170" y1="138.2656" y2="158.2656"/><polygon fill="#181818" points="166,148.2656,170,158.2656,174,148.2656,170,152.2656" style="stroke:#181818;stroke-width:1.0;"/><!--MD5=[9522f56369df43bd38e08316ee6aa0dc]
@startuml FillChangesFlowHireOrdersTopic
skinparam ConditionEndStyle hline 
scale max 500 height
    start
        :Получаем событие из кафки;
        :Сохраняем в таблицу employee_hire_changes_raw;
    stop
@enduml

PlantUML version 1.2022.7(Mon Aug 22 20:01:30 MSK 2022)
(GPL source distribution)
Java Runtime: OpenJDK Runtime Environment
JVM: OpenJDK 64-Bit Server VM
Default Encoding: UTF-8
Language: en
Country: RU
--></g></svg>